<svg width="429" height="81" viewBox="0 0 429 81" fill="none" xmlns="http://www.w3.org/2000/svg">
<path d="M21.762 18.502C10.152 18.502 2.862 27.088 2.862 40.318C2.862 53.71 10.206 62.242 21.762 62.242C33.318 62.242 40.554 53.656 40.554 40.372C40.554 27.034 33.318 18.502 21.762 18.502ZM21.762 23.146C29.97 23.146 35.208 29.842 35.208 40.048C35.208 50.902 30.186 57.544 21.762 57.544C13.5 57.544 8.208 50.794 8.208 40.372C8.208 29.95 13.392 23.146 21.762 23.146ZM53.4971 55.6C53.4971 59.704 55.1711 61.378 59.0051 61.378H68.6171C80.4431 61.378 87.5711 53.332 87.5711 39.886C87.5711 26.872 80.5511 19.312 68.6171 19.312H59.0051C55.1711 19.312 53.4971 20.986 53.4971 25.144V55.6ZM58.6271 25.738C58.6271 24.604 59.3831 23.956 60.4091 23.956H68.5091C77.4191 23.956 82.2251 29.626 82.2251 39.94C82.2251 50.47 77.0951 56.68 68.3471 56.68H60.3551C59.2751 56.68 58.6271 56.086 58.6271 54.844V25.738ZM100.557 55.6C100.557 59.704 102.231 61.378 106.065 61.378H115.677C127.503 61.378 134.631 53.332 134.631 39.886C134.631 26.872 127.611 19.312 115.677 19.312H106.065C102.231 19.312 100.557 20.986 100.557 25.144V55.6ZM105.687 25.738C105.687 24.604 106.443 23.956 107.469 23.956H115.569C124.479 23.956 129.285 29.626 129.285 39.94C129.285 50.47 124.155 56.68 115.407 56.68H107.415C106.335 56.68 105.687 56.086 105.687 54.844V25.738ZM159.605 36.754C153.557 35.566 151.667 33.568 151.667 29.68C151.667 26.116 154.529 22.984 160.793 22.984C166.787 22.984 169.055 26.008 169.919 29.086C170.351 30.22 171.323 30.652 172.295 30.652C172.619 30.652 172.943 30.598 173.213 30.544C174.293 30.328 175.211 29.518 175.211 28.384C175.211 28.114 175.157 27.844 175.049 27.574C173.861 23.686 170.513 18.502 160.793 18.502C150.641 18.502 146.429 24.01 146.429 29.68C146.429 36.754 150.101 39.832 158.201 41.506L162.521 42.424C168.893 43.72 171.323 45.664 171.323 50.092C171.323 54.736 167.489 57.706 161.333 57.706C153.449 57.706 151.667 53.656 150.695 50.038C150.371 48.904 149.345 48.418 148.319 48.418C147.995 48.418 147.725 48.472 147.401 48.526C146.267 48.796 145.349 49.606 145.349 50.794C145.349 51.01 145.403 51.226 145.457 51.496C146.753 55.87 149.291 62.242 161.603 62.242C171.269 62.242 176.615 57.004 176.615 50.038C176.615 42.208 172.025 39.346 163.601 37.564L159.605 36.754Z" fill="white"/>
<path d="M208.038 61.378C216.354 61.378 221.16 57.058 221.16 49.714C221.16 43.882 218.352 40.318 212.844 39.184C217.488 37.672 219.702 34.648 219.702 29.518C219.702 23.038 215.22 19.312 207.444 19.312H194.7C190.866 19.312 189.246 20.986 189.246 25.144V55.6C189.246 59.704 190.866 61.378 194.7 61.378H208.038ZM194.268 37.078V25.522C194.268 24.442 194.808 23.794 195.834 23.794H207.066C211.98 23.794 214.518 25.954 214.518 30.166C214.518 34.486 211.818 37.078 207.174 37.078H194.268ZM194.268 41.506H207.336C212.844 41.506 215.814 44.152 215.814 49.228C215.814 54.196 212.898 56.896 207.444 56.896H195.996C194.808 56.896 194.268 56.302 194.268 55.114V41.506ZM245.6 30.706C236.852 30.706 231.614 37.024 231.614 46.366C231.614 55.978 236.798 62.242 245.708 62.242C254.132 62.242 259.316 55.762 259.316 46.366C259.316 36.97 254.24 30.706 245.6 30.706ZM245.762 34.864C251.27 34.864 254.348 39.508 254.348 46.312C254.348 53.494 251.27 58.084 245.384 58.084C239.822 58.084 236.582 53.386 236.582 46.528C236.582 39.346 239.93 34.864 245.762 34.864ZM283.537 30.706C274.789 30.706 269.551 37.024 269.551 46.366C269.551 55.978 274.735 62.242 283.645 62.242C292.069 62.242 297.253 55.762 297.253 46.366C297.253 36.97 292.177 30.706 283.537 30.706ZM283.699 34.864C289.207 34.864 292.285 39.508 292.285 46.312C292.285 53.494 289.207 58.084 283.321 58.084C277.759 58.084 274.519 53.386 274.519 46.528C274.519 39.346 277.867 34.864 283.699 34.864ZM313.806 50.74L317.91 46.798L327.954 60.838C328.386 61.432 329.088 61.702 329.79 61.702C330.33 61.702 330.816 61.594 331.248 61.324C331.95 60.892 332.49 60.082 332.49 59.272C332.49 58.84 332.382 58.462 332.112 58.084L321.366 43.774L330.492 35.242C330.978 34.756 331.194 34.27 331.194 33.73C331.194 33.136 330.87 32.488 330.384 31.948C329.952 31.408 329.304 31.138 328.602 31.138C328.062 31.138 327.468 31.354 326.982 31.84L313.806 44.962V20.986C313.806 19.582 312.834 18.988 311.43 18.988C309.918 18.988 308.946 19.69 308.946 21.094V59.542C308.946 61 309.864 61.702 311.376 61.702C312.834 61.702 313.806 61 313.806 59.542V50.74ZM343.243 59.542C343.243 61 344.161 61.702 345.673 61.702C347.131 61.702 348.157 61 348.157 59.542V33.244C348.157 31.84 347.131 31.138 345.673 31.138C344.161 31.138 343.243 31.84 343.243 33.244V59.542ZM345.727 18.934C343.675 18.934 342.055 20.5 342.055 22.552C342.055 24.658 343.675 26.224 345.727 26.224C347.725 26.224 349.345 24.658 349.345 22.552C349.345 20.5 347.725 18.934 345.727 18.934ZM386.139 41.236C386.139 34.594 382.683 30.706 376.257 30.706C371.127 30.706 367.887 33.136 365.997 36.97C366.051 35.944 366.213 35.404 366.213 34.702V33.244C366.213 31.84 365.241 31.138 363.837 31.138C362.325 31.138 361.299 31.84 361.299 33.244V59.542C361.299 61 362.271 61.702 363.783 61.702C365.187 61.702 366.213 61 366.213 59.542V44.422C366.213 42.316 366.753 40.75 368.103 38.914C369.939 36.376 372.369 35.08 375.285 35.08C379.335 35.08 381.171 37.672 381.171 42.262V59.542C381.171 61 382.197 61.702 383.655 61.702C385.059 61.702 386.139 61 386.139 59.542V41.236ZM420.084 34.702C420.084 35.296 420.246 36.322 420.3 36.916C418.788 33.46 415.71 30.76 410.796 30.76C402.48 30.76 397.674 37.024 397.674 46.312C397.674 55.33 403.02 61.27 410.688 61.27C415.44 61.27 418.518 58.894 420.3 55.492C420.192 56.248 420.084 57.436 420.084 58.084C420.03 66.076 417.6 69.478 410.85 69.478C407.556 69.478 405.18 68.344 403.182 66.022C402.75 65.536 402.21 65.32 401.616 65.32C401.076 65.32 400.482 65.536 400.05 65.86C399.402 66.346 399.024 67.048 399.024 67.75C399.024 68.182 399.186 68.56 399.456 68.938C401.508 71.584 405.234 73.528 411.066 73.528C418.194 73.528 424.728 70.72 424.728 58.3V33.298C424.728 31.84 423.864 31.138 422.406 31.138C420.84 31.138 420.084 31.948 420.084 33.082V34.702ZM411.39 34.864C416.898 34.864 420.192 39.508 420.192 45.934C420.192 52.63 416.844 57.328 411.336 57.328C406.314 57.328 402.642 53.17 402.642 46.312C402.642 39.346 405.882 34.864 411.39 34.864Z" fill="#6BCAFF"/>
</svg>
